<?xml version="1.0" encoding="UTF-8"?>
<!-- Generated by Pixelmator Pro 3.6.3 -->
<svg width="212" height="44" viewBox="0 0 212 44" xmlns="http://www.w3.org/2000/svg">
    <path id="Percorso" fill="#ffffff" stroke="none" d="M 8 0 L 204 0 C 208.418274 0 212 3.581722 212 8 L 212 36 C 212 40.418278 208.418274 44 204 44 L 8 44 C 3.581722 44 0 40.418278 0 36 L 0 8 C 0 3.581722 3.581722 0 8 0 Z"/>
    <path id="path1" fill="#000000" stroke="none" d="M 60.438 15.227001 L 60.438 26.5 L 61.844002 26.5 L 61.844002 22.476999 L 64.68 22.476999 C 66.796997 22.476999 68.305 20.983999 68.305 18.875 C 68.305 16.726999 66.828003 15.227001 64.695 15.227001 L 60.438 15.227001 Z M 61.844002 16.476999 L 64.328003 16.476999 C 65.960999 16.476999 66.859001 17.327999 66.859001 18.875 C 66.859001 20.367001 65.929001 21.226999 64.329002 21.226999 L 61.844002 21.226999 L 61.844002 16.476999 Z M 73.344002 26.648001 C 75.742996 26.648001 77.226997 24.992001 77.226997 22.289 C 77.226997 19.579 75.742996 17.929001 73.344002 17.929001 C 70.945999 17.929001 69.460999 19.579 69.460999 22.289 C 69.460999 24.992001 70.945999 26.649 73.344002 26.649 Z M 73.344002 25.438 C 71.75 25.438 70.851997 24.281 70.851997 22.289 C 70.851997 20.289 71.75 19.141001 73.344002 19.141001 C 74.938004 19.141001 75.835999 20.289 75.835999 22.289 C 75.835999 24.281 74.938004 25.437 73.344002 25.437 Z M 89.297997 18.077999 L 87.945999 18.077999 L 86.290001 24.813 L 86.165001 24.813 L 84.281998 18.077999 L 82.991997 18.077999 L 81.110001 24.813 L 80.985001 24.813 L 79.329002 18.077999 L 77.969002 18.077999 L 80.329002 26.5 L 81.689003 26.5 L 83.563004 19.983999 L 83.688004 19.983999 L 85.570999 26.5 L 86.938004 26.5 L 89.297997 18.077999 Z M 93.820999 19.118 C 95.156998 19.118 96.047997 20.101999 96.079002 21.594 L 91.439003 21.594 C 91.540001 20.101999 92.477997 19.117001 93.820999 19.117001 Z M 96.040001 24.32 C 95.688004 25.062 94.954002 25.459999 93.867996 25.459999 C 92.438004 25.459999 91.508003 24.406 91.438004 22.742001 L 91.438004 22.68 L 97.492996 22.68 L 97.492996 22.164 C 97.492996 19.547001 96.110001 17.93 93.836998 17.93 C 91.524002 17.93 90.040001 19.648001 90.040001 22.297001 C 90.040001 24.961 91.5 26.648001 93.836998 26.648001 C 95.681 26.648001 96.992996 25.757999 97.384003 24.32 L 96.040001 24.32 Z M 99.281998 26.5 L 100.625999 26.5 L 100.625999 21.281 C 100.625999 20.094 101.556 19.233999 102.836998 19.233999 C 103.102997 19.233999 103.586998 19.281 103.696999 19.312 L 103.696999 17.969999 C 103.473969 17.9436 103.249588 17.930244 103.025002 17.93 C 101.907997 17.93 100.939003 18.509001 100.689003 19.33 L 100.564003 19.33 L 100.564003 18.08 L 99.282997 18.08 L 99.282997 26.5 Z M 108.181 19.117001 C 109.516998 19.117001 110.407997 20.101999 110.439003 21.594 L 105.797997 21.594 C 105.900002 20.101999 106.837997 19.117001 108.181 19.117001 Z M 110.400002 24.32 C 110.047997 25.062 109.314003 25.459999 108.227997 25.459999 C 106.797997 25.459999 105.869003 24.406 105.797997 22.742001 L 105.797997 22.68 L 111.852997 22.68 L 111.852997 22.164 C 111.852997 19.547001 110.470001 17.93 108.196999 17.93 C 105.884003 17.93 104.400002 19.648001 104.400002 22.297001 C 104.400002 24.961 105.861 26.648001 108.196999 26.648001 C 110.041 26.648001 111.352997 25.757999 111.744003 24.32 L 110.400002 24.32 Z M 116.760002 26.648001 C 117.924004 26.648001 118.924004 26.094 119.455002 25.156 L 119.580002 25.156 L 119.580002 26.5 L 120.861 26.5 L 120.861 14.734001 L 119.517998 14.734001 L 119.517998 19.406 L 119.400002 19.406 C 118.924004 18.483999 117.931999 17.93 116.760002 17.93 C 114.619003 17.93 113.221001 19.648001 113.221001 22.290001 C 113.221001 24.938 114.602997 26.648001 116.760002 26.648001 Z M 117.071999 19.141001 C 118.596001 19.141001 119.549004 20.358999 119.549004 22.289 C 119.549004 24.233999 118.602997 25.437 117.071999 25.437 C 115.532997 25.437 114.611 24.257 114.611 22.289 C 114.611 20.329 115.541 19.141001 117.071999 19.141001 Z M 131.533997 26.648001 C 133.667007 26.648001 135.065002 24.922001 135.065002 22.289 C 135.065002 19.641001 133.673996 17.929001 131.533997 17.929001 C 130.378006 17.929001 129.354004 18.5 128.893005 19.406 L 128.768005 19.406 L 128.768005 14.734001 L 127.424004 14.734001 L 127.424004 26.5 L 128.705994 26.5 L 128.705994 25.156 L 128.830994 25.156 C 129.362 26.094 130.362 26.648001 131.533997 26.648001 Z M 131.220993 19.141001 C 132.759995 19.141001 133.673996 20.320999 133.673996 22.289 C 133.673996 24.257999 132.759995 25.437 131.220993 25.437 C 129.690002 25.437 128.737 24.233999 128.737 22.289 C 128.737 20.344 129.690002 19.141001 131.220993 19.141001 Z M 137.261002 29.547001 C 138.753006 29.547001 139.425003 28.969 140.143005 27.016001 L 143.432999 18.077999 L 142.003006 18.077999 L 139.697998 25.007999 L 139.572998 25.007999 L 137.261002 18.077999 L 135.807999 18.077999 L 138.925003 26.507999 L 138.768005 27.007999 C 138.417007 28.023001 137.994995 28.391001 137.222 28.391001 C 137.033997 28.391001 136.822998 28.382999 136.658997 28.351 L 136.658997 29.5 C 136.847 29.531 137.080994 29.547001 137.261002 29.547001 Z M 154.651993 26.5 L 158.550003 15.227001 L 156.401993 15.227001 L 153.589005 24.148001 L 153.457001 24.148001 L 150.621002 15.227001 L 148.393997 15.227001 L 152.332001 26.5 L 154.651993 26.5 Z M 162.667999 19.32 C 163.832001 19.32 164.598007 20.132999 164.636993 21.398001 L 160.613007 21.398001 C 160.699005 20.148001 161.511993 19.32 162.667999 19.32 Z M 164.651993 24.148001 C 164.371002 24.781 163.707001 25.132999 162.746002 25.132999 C 161.473007 25.132999 160.651993 24.243 160.604996 22.82 L 160.604996 22.719 L 166.574005 22.719 L 166.574005 22.094 C 166.574005 19.398001 165.113007 17.781 162.675995 17.781 C 160.199005 17.781 158.660004 19.507999 158.660004 22.257999 C 158.660004 25.007999 160.175995 26.672001 162.690994 26.672001 C 164.707001 26.672001 166.136993 25.702999 166.488007 24.148001 L 164.651993 24.148001 Z M 168.199005 26.5 L 170.136993 26.5 L 170.136993 21.562 C 170.136993 20.367001 171.011993 19.586 172.270004 19.586 C 172.598007 19.586 173.113007 19.641001 173.261993 19.695999 L 173.261993 17.898001 C 173.082001 17.844 172.738007 17.813 172.457001 17.813 C 171.356003 17.813 170.434006 18.438 170.199005 19.281 L 170.067001 19.281 L 170.067001 17.952999 L 168.199005 17.952999 L 168.199005 26.5 Z M 181.699997 20.827999 C 181.496994 19.031 180.167999 17.781 177.973007 17.781 C 175.403 17.781 173.895004 19.43 173.895004 22.202999 C 173.895004 25.016001 175.410995 26.672001 177.981003 26.672001 C 180.145004 26.672001 181.488998 25.469 181.699997 23.68 L 179.856003 23.68 C 179.653 24.57 178.981003 25.047001 177.973007 25.047001 C 176.653 25.047001 175.856003 24 175.856003 22.202999 C 175.856003 20.43 176.645004 19.406 177.973007 19.406 C 179.035995 19.406 179.675995 20 179.856003 20.827999 L 181.699997 20.827999 Z M 186.817001 19.32 C 187.981003 19.32 188.746994 20.132999 188.785995 21.398001 L 184.761993 21.398001 C 184.848007 20.148001 185.660995 19.32 186.817001 19.32 Z M 188.802002 24.148001 C 188.520004 24.781 187.856003 25.132999 186.895004 25.132999 C 185.621994 25.132999 184.802002 24.243 184.755005 22.82 L 184.755005 22.719 L 190.723007 22.719 L 190.723007 22.094 C 190.723007 19.398001 189.261993 17.781 186.824997 17.781 C 184.348007 17.781 182.809006 19.507999 182.809006 22.257999 C 182.809006 25.007999 184.324997 26.672001 186.841003 26.672001 C 188.856003 26.672001 190.285995 25.702999 190.636993 24.148001 L 188.802002 24.148001 Z M 192.427002 26.5 L 194.363998 26.5 L 194.363998 14.647999 L 192.427002 14.647999 L 192.427002 26.5 Z M 23.325001 13 L 32.650002 29 L 14 29 L 23.325001 13 Z"/>
    <path id="path2" fill="none" stroke="#5e5e5e" d="M 43.5 0 L 43.5 44"/>
</svg>
